# xmcd
#
# Track frame offsets:
#	150
#	11610
#	27780
#	45952
#	57423
#	74076
#	89507
#	108590
#	124493
#	136571
#	155495
#	172114
#	189325
#	207576
#	224872
#	238352
#	254569
#	265334
#	287391
#	303733
#	322379
#	336268
#
# Disc length: 4689 seconds
#
# Revision: 1
# Processed by: cddbd v1.5.2PL0 Copyright (c) Steve Scherf et al.
# Submitted via: audiograbber 1.83.01
#
DISCID=66124f16
DTITLE=Golec Orkiestra - Golec orkiestra
DYEAR=1900
DGENRE=
TTITLE0=Dyplomy
TTITLE1=Sciernisko
TTITLE2=Slodycze
TTITLE3=Pieniadze to nie wszystko
TTITLE4=Oni sa z nami
TTITLE5=Tattoo
TTITLE6=Ty i tylko ty
TTITLE7=Szarpany
TTITLE8=Walizeczka
TTITLE9=Do Milowki wroc
TTITLE10=Holny
TTITLE11=Piosenka lo nicym
TTITLE12=Kochom Ciebie dziywcyno
TTITLE13=Kuku
TTITLE14=Crazy is my life
TTITLE15=Ej Janicku ka zes jes
TTITLE16=UFO
TTITLE17=Lornetka
TTITLE18=Szafa
TTITLE19=Chalpa sie polila
TTITLE20=Wysel
TTITLE21=Na holi
EXTD=
EXTT0=
EXTT1=
EXTT2=
EXTT3=
EXTT4=
EXTT5=
EXTT6=
EXTT7=
EXTT8=
EXTT9=
EXTT10=
EXTT11=
EXTT12=
EXTT13=
EXTT14=
EXTT15=
EXTT16=
EXTT17=
EXTT18=
EXTT19=
EXTT20=
EXTT21=
PLAYORDER=
